:SAMPLES-PER-SECOND 30
:FULLY-SPECIFIED
:DEGREES
747
root  22.9988 39.2781 -1.92115 178.823 -5.22086 179.003
RightUpLeg  -3.62732 -12.2441 -7.5976
RightLeg  13.4177 -6.37949 0.250549
RightFoot  -4.48051 -0.178092 2.45839
RightToes  4.01633e-009 0 -3.6325e-017
Spine  2.09836 -2.8194 5.79809
Spine1  10.3732 -3.87213 6.31082
HEad  40.5805 9.19648 -178.384
LeftShoulder1  0.660977 1.67985 -30.143
LeftArm  3.69156 10.8053 -43.044
LeftForeArm  20.6999 -30.4905 -5.50016
LeftHand  -0.097123 -0.781462 1.92479
RightShoulder  -0.455238 -4.8789 26.2245
RightArm  19.4694 -5.59186 42.7866
RightForeArm  7.56834 11.3475 7.80065
RightHand  -0.323004 0.759313 -6.2061
LeftUpLeg  -9.61623 3.42145 3.16782
LeftLeg  44.5301 -6.99597 -6.99279
LeftFoot  -5.8662 0.345484 -6.46222
LeftToes  -1.95724e-009 9.62483e-011 3.51777e-011
748
root  23.1904 39.4811 -2.48137 179.2 -9.29306 177.8
RightUpLeg  -1.08872 -12.7522 -8.91323
RightLeg  11.5057 -9.70365 0.0747151
RightFoot  -4.548 -0.207363 2.97247
RightToes  4.01633e-009 0 -3.6325e-017
Spine  2.37883 -2.58413 4.87572
Spine1  9.45916 -3.4662 5.09387
HEad  44.2671 4.0032 179.204
LeftShoulder1  0.62426 1.77398 -29.9971
LeftArm  3.89845 10.8128 -43.768
LeftForeArm  22.3856 -32.3866 -5.86709
LeftHand  -0.105178 -0.834811 2.05655
RightShoulder  -0.421818 -4.79167 25.827
RightArm  21.4669 -7.04478 41.9291
RightForeArm  5.73177 13.4949 7.24967
RightHand  -0.304723 0.793508 -5.83322
LeftUpLeg  -11.0237 5.39107 1.63947
LeftLeg  39.3907 -3.78635 -2.93314
LeftFoot  -6.49829 0.192865 -3.65697
LeftToes  -1.95724e-009 9.62483e-011 3.51777e-011
749
root  23.3153 39.602 -3.05549 179.838 -13.0073 177.047
RightUpLeg  0.981486 -13.0131 -9.63102
RightLeg  9.94249 -12.9761 0.127848
RightFoot  -4.81203 -0.234442 3.53369
RightToes  4.01633e-009 0 -3.6325e-017
Spine  1.92279 -2.18781 4.6873
Spine1  9.15287 -2.85273 3.63438
HEad  47.5958 0.260956 175.656
LeftShoulder1  0.681509 1.60368 -29.7626
LeftArm  3.62178 11.292 -44.6128
LeftForeArm  24.684 -33.6806 -6.05899
LeftHand  -0.102747 -1.27506 1.92686
RightShoulder  -0.411416 -4.7695 25.5643
RightArm  24.1689 -8.52809 40.8278
RightForeArm  0.945758 15.4769 6.86933
RightHand  -0.393213 2.1575 -6.22547
LeftUpLeg  -11.9183 9.67987 0.332232
LeftLeg  32.4569 -3.44177 -1.99436
LeftFoot  -6.70636 0.137008 -2.39932
LeftToes  -1.95724e-009 9.62483e-011 3.51777e-011
750
root  23.3602 39.6961 -3.63449 -179.566 -16.5386 176.374
RightUpLeg  3.19154 -13.174 -10.2719
RightLeg  8.22936 -15.9431 0.490959
RightFoot  -4.98952 -0.263145 4.12674
RightToes  4.01633e-009 0 -3.6325e-017
Spine  1.74076 -1.92516 4.07212
Spine1  8.81904 -2.45062 2.56117
HEad  50.4751 -3.76966 171.552
LeftShoulder1  0.595667 1.8392 -29.6967
LeftArm  4.56172 11.2895 -44.8852
LeftForeArm  25.3627 -33.727 -6.03194
LeftHand  -0.0503531 -1.47149 0.993172
RightShoulder  -0.44606 -4.87477 25.6485
RightArm  26.3237 -9.22727 39.5505
RightForeArm  -2.07112 16.7277 6.63157
RightHand  -0.489903 2.78217 -7.17524
LeftUpLeg  -11.9232 14.9257 -1.78033
LeftLeg  23.7709 -4.5429 -1.60855
LeftFoot  -6.47376 0.157401 -2.80173
LeftToes  -1.95724e-009 9.62483e-011 3.51777e-011
751
root  23.3067 39.7196 -4.20815 -179.204 -20.3565 176.27
RightUpLeg  5.70251 -13.1394 -10.3033
RightLeg  6.23699 -19.7406 1.1709
RightFoot  -5.23753 -0.277466 4.53187
RightToes  4.01633e-009 0 -3.6325e-017
Spine  1.37541 -1.97086 3.50921
Spine1  8.89682 -2.56633 2.27703
HEad  53.3346 -7.08794 167.449
LeftShoulder1  0.542062 2.00284 -30.0202
LeftArm  5.50553 11.3348 -45.0769
LeftForeArm  23.8513 -32.4911 -5.80986
LeftHand  -0.0727903 -0.938645 1.43611
RightShoulder  -0.438579 -4.86279 25.3759
RightArm  27.4072 -9.10273 38.5372
RightForeArm  -2.65599 16.6013 6.80958
RightHand  -0.537474 3.1164 -7.56745
LeftUpLeg  -11.3977 18.032 -3.24978
LeftLeg  14.7968 -2.29369 -1.71039
LeftFoot  -5.83764 0.223067 -3.67438
LeftToes  -1.95724e-009 9.62483e-011 3.51777e-011
752
root  23.1434 39.6903 -4.77487 -178.849 -23.8732 176.343
RightUpLeg  7.72636 -13.0958 -10.1916
RightLeg  4.97784 -23.0503 1.84581
RightFoot  -5.651 -0.291445 5.08206
RightToes  4.01633e-009 0 -3.6325e-017
Spine  0.896114 -1.95947 3.78816
Spine1  8.78488 -2.36389 1.18269
HEad  55.2924 -8.56699 163.681
LeftShoulder1  0.623514 1.75739 -29.595
LeftArm  5.98925 11.8348 -45.9163
LeftForeArm  21.8581 -29.9799 -5.31066
LeftHand  -0.0994795 -0.655295 1.99234
RightShoulder  -0.448468 -4.89953 25.2485
RightArm  25.8779 -9.35592 37.826
RightForeArm  -0.998135 15.5881 7.04141
RightHand  -0.493184 3.20185 -6.89606
LeftUpLeg  -9.7358 9.7021 -2.46142
LeftLeg  5.29064 14.4107 -3.68012
LeftFoot  -2.8884 0.266499 -3.67642
LeftToes  -1.95724e-009 9.62483e-011 3.51777e-011
753
root  22.9008 39.6097 -5.35532 -178.684 -27.3743 176.656
RightUpLeg  9.84598 -13.0107 -9.91809
RightLeg  3.81752 -26.2439 2.80225
RightFoot  -6.30762 -0.311919 6.13583
RightToes  4.01633e-009 0 -3.6325e-017
Spine  0.528745 -2.07332 4.06496
Spine1  8.5558 -2.21528 -0.121777
HEad  56.4738 -9.15958 161.048
LeftShoulder1  0.613489 1.77111 -29.3013
LeftArm  7.15537 11.8484 -46.3975
LeftForeArm  19.861 -26.3016 -4.55739
LeftHand  -0.0631467 0.0313345 1.3484
RightShoulder  -0.494107 -5.04 25.338
RightArm  23.6318 -9.26528 37.4737
RightForeArm  0.255791 13.4733 7.66772
RightHand  -0.477085 2.549 -7.18767
LeftUpLeg  -9.15752 4.98335 -3.34803
LeftLeg  -1.50551 28.7106 -5.28692
LeftFoot  3.43725 -0.57573 3.87119
LeftToes  -1.95724e-009 9.62483e-011 3.51777e-011
754
root  22.6061 39.4355 -5.95964 -179.176 -31.4525 177.325
RightUpLeg  11.9906 -13.0769 -9.44372
RightLeg  4.2258 -29.3687 3.24768
RightFoot  -7.46792 -0.31439 7.76321
RightToes  4.01633e-009 0 -3.6325e-017
Spine  0.495188 -2.27672 3.63535
Spine1  8.29523 -2.36107 -0.351093
HEad  56.6149 -9.27495 160.239
LeftShoulder1  0.621211 1.73923 -29.0939
LeftArm  6.44348 11.3636 -47.055
LeftForeArm  19.5957 -21.3605 -4.32299
LeftHand  -0.0364435 0.785641 0.859134
RightShoulder  -0.47874 -4.99357 25.2773
RightArm  19.9928 -9.79827 37.5282
RightForeArm  2.30757 11.1088 7.88684
RightHand  -0.464776 1.96614 -7.4969
LeftUpLeg  -9.33934 4.31303 -4.58654
LeftLeg  -2.51811 35.0624 -4.9498
LeftFoot  7.33303 -2.22844 13.5057
LeftToes  -1.95724e-009 9.62483e-011 3.51777e-011
755
root  22.2773 39.2602 -6.61571 179.499 -35.1292 177.826
RightUpLeg  14.8407 -15.5706 -10.3504
RightLeg  6.0801 -28.9646 3.08919
RightFoot  -8.51381 -0.302308 9.99145
RightToes  4.01633e-009 0 -3.6325e-017
Spine  1.13768 -2.19263 2.06881
Spine1  8.30421 -2.43559 0.166305
HEad  56.6119 -9.24245 160.539
LeftShoulder1  0.58911 1.84819 -29.4811
LeftArm  1.57426 10.2679 -46.3427
LeftForeArm  23.2585 -15.7054 -6.36859
LeftHand  -0.0754403 1.41391 1.94732
RightShoulder  -0.433175 -4.85995 25.0193
RightArm  16.8908 -10.29 38.1517
RightForeArm  4.03797 8.70623 7.74606
RightHand  -0.393223 1.66183 -6.63982
LeftUpLeg  -9.19882 4.47695 -4.91057
LeftLeg  2.2532 33.2895 -2.00228
LeftFoot  4.70379 -2.16059 14.9727
LeftToes  -1.95724e-009 9.62483e-011 3.51777e-011
756
root  21.9349 39.1259 -7.24611 178.637 -38.5741 176.683
RightUpLeg  17.4767 -24.9061 -14.9661
RightLeg  11.335 -21.0145 -0.169777
RightFoot  -9.36092 -0.312626 14.2679
RightToes  4.01633e-009 0 -3.6325e-017
Spine  2.19612 -1.87251 -0.295133
Spine1  8.61604 -2.10196 -0.22223
HEad  56.4569 -8.19978 161.57
LeftShoulder1  0.541969 2.00906 -30.1646
LeftArm  -4.27108 8.3455 -44.5001
LeftForeArm  27.8453 -9.89769 -7.75531
LeftHand  -0.0170083 1.85167 0.291328
RightShoulder  -0.537208 -5.13826 26.0835
RightArm  14.3831 -9.92469 38.7388
RightForeArm  4.53436 6.24425 7.2226
RightHand  -0.412914 1.79287 -6.83997
LeftUpLeg  -8.25341 5.46207 -5.51191
LeftLeg  7.12992 29.0503 -0.795892
LeftFoot  1.77774 -1.55904 13.401
LeftToes  -1.95724e-009 9.62483e-011 3.51777e-011
